<svg width="1162" height="714" viewBox="0 0 1162 714" fill="none" xmlns="http://www.w3.org/2000/svg">
<path d="M987.584 177C988.8 180.648 990.432 185.224 992.48 190.728L1023.1 190.728L1027.9 177L1052 177L1025.12 246.696H989.792L962.72 177L987.584 177ZM997.952 205.704C1000.38 212.424 1002.88 219.144 1005.44 225.864L1007.74 232.104C1009.98 226.28 1013.28 217.48 1017.63 205.704L997.952 205.704Z" fill="#030611"/>
<path d="M936.048 196.392C917.488 196.52 902.129 196.84 889.969 197.352C890.801 194.088 891.313 190.952 891.505 187.944C891.697 184.936 891.792 181.288 891.792 177L959.472 177C958.96 189.416 958.704 201.032 958.704 211.848C958.704 222.664 958.96 234.28 959.472 246.696L936.048 246.696V196.392Z" fill="#030611"/>
<path d="M812.321 226.536C822.369 226.856 832.129 227.048 841.601 227.112V177L865.601 177V227.112C875.137 227.048 884.865 226.856 894.785 226.536V246.696L812.321 246.696V226.536Z" fill="#030611"/>
<path d="M761.013 246.6C748.277 246.6 739.414 244.328 734.422 239.784C729.43 235.304 726.933 228.968 726.933 220.776C726.933 215.144 727.925 210.344 729.909 206.376C731.893 202.472 735.381 199.4 740.373 197.16C745.365 194.984 752.245 193.896 761.013 193.896L780.982 193.896V177L804.597 177C804.085 189.416 803.829 201.032 803.829 211.848C803.829 222.664 804.085 234.28 804.597 246.696H780.982V246.6H761.013ZM767.733 212.424C762.421 212.424 758.453 212.616 755.829 213C753.141 213.448 751.285 214.216 750.261 215.304C749.173 216.392 748.63 217.992 748.63 220.104C748.63 222.216 749.141 223.784 750.165 224.808C751.125 225.896 752.95 226.632 755.638 227.016C758.262 227.4 762.293 227.592 767.733 227.592H780.982V212.424H767.733Z" fill="#030611"/>
<path d="M696.629 194.568C672.309 194.696 654.677 195.048 643.733 195.624C644.181 193 644.469 190.28 644.597 187.464C644.661 184.712 644.693 181.224 644.693 177L719.285 177C718.773 189.416 718.517 201.032 718.517 211.848C718.517 222.664 718.773 234.28 719.285 246.696L644.693 246.696V229.32L696.629 229.32V220.104C693.557 220.04 689.013 220.008 682.997 220.008C672.821 220.008 662.293 220.2 651.413 220.584V204.072C662.293 204.456 672.821 204.648 682.997 204.648C689.013 204.648 693.557 204.616 696.629 204.552V194.568Z" fill="#030611"/>
<path d="M558.947 223.464C558.947 217.896 560.323 213.192 563.075 209.352C565.763 205.512 570.403 202.728 576.995 201C576.227 199.976 575.683 199.176 575.363 198.6L559.811 177L585.923 177C588.739 182.248 593.187 189.672 599.267 199.272H613.379V177L636.035 177C635.523 189.416 635.267 201.032 635.267 211.848C635.267 222.664 635.523 234.28 636.035 246.696H613.379V246.6H593.699C580.771 246.6 571.747 244.52 566.627 240.36C561.507 236.2 558.947 230.568 558.947 223.464ZM613.379 228.168V217.224H600.419C594.979 217.224 590.883 217.384 588.131 217.704C585.315 218.088 583.363 218.664 582.275 219.432C581.187 220.2 580.643 221.32 580.643 222.792C580.643 224.2 581.155 225.288 582.179 226.056C583.203 226.824 585.123 227.368 587.939 227.688C590.755 228.008 594.915 228.168 600.419 228.168H613.379Z" fill="#030611"/>
<path d="M551.285 185.256C549.109 188.52 547.317 191.56 545.909 194.376C544.437 197.192 543.029 200.456 541.685 204.168C537.141 201.544 531.861 199.496 525.845 198.024C519.829 196.552 514.229 195.816 509.045 195.816C503.733 195.816 499.989 196.264 497.813 197.16C495.637 198.12 494.549 199.144 494.549 200.232C494.549 204.136 500.501 206.088 512.405 206.088C525.461 206.088 534.933 207.432 540.821 210.12C546.709 212.872 549.653 217.288 549.653 223.368C549.653 232.008 546.069 238.376 538.901 242.472C531.733 246.568 522.421 248.616 510.965 248.616C504.309 248.616 497.493 247.752 490.517 246.024C483.477 244.36 477.141 242.056 471.509 239.112C473.365 234.888 475.317 229.736 477.365 223.656C477.749 222.376 478.069 221.416 478.325 220.776C481.589 223.4 486.517 225.576 493.109 227.304C499.701 229.096 505.525 229.992 510.581 229.992C516.661 229.992 520.757 229.576 522.869 228.744C524.981 227.976 526.037 226.824 526.037 225.288C526.037 223.752 524.597 222.504 521.717 221.544C518.773 220.648 514.549 220.2 509.045 220.2C495.477 220.2 485.621 218.632 479.477 215.496C473.333 212.424 470.261 207.688 470.261 201.288C470.261 192.328 473.525 185.864 480.053 181.896C486.581 177.992 496.469 176.04 509.717 176.04C516.821 176.04 524.053 176.808 531.413 178.344C538.773 179.944 545.397 182.248 551.285 185.256Z" fill="#030611"/>
<path d="M419.878 176.04C434.534 176.04 445.317 179.208 452.229 185.544C459.141 191.944 462.598 200.904 462.598 212.424C462.598 223.816 459.174 232.712 452.326 239.112C445.413 245.512 434.597 248.712 419.877 248.712C405.093 248.712 394.277 245.512 387.429 239.112C380.517 232.712 377.061 223.816 377.061 212.424C377.061 200.84 380.485 191.88 387.333 185.544C394.181 179.208 405.03 176.04 419.878 176.04ZM419.878 195.624C412.774 195.624 407.653 196.968 404.517 199.656C401.381 202.408 399.813 206.664 399.813 212.424C399.813 218.056 401.381 222.248 404.517 225C407.653 227.752 412.774 229.128 419.878 229.128C426.918 229.128 432.005 227.752 435.141 225C438.277 222.248 439.845 218.056 439.845 212.424C439.845 206.728 438.277 202.504 435.141 199.752C432.005 197 426.918 195.624 419.878 195.624Z" fill="#030611"/>
<path d="M288.866 246.6C289.314 235.784 289.538 224.2 289.538 211.848C289.538 199.432 289.314 187.816 288.866 177L323.234 177L346.466 229.416L344.738 177L369.41 177C368.898 189.416 368.642 201.032 368.642 211.848C368.642 222.6 368.898 234.184 369.41 246.6H334.082L310.754 192.744L312.386 246.6H288.866Z" fill="#030611"/>
<path d="M220.615 177C221.831 180.648 223.463 185.224 225.511 190.728L256.135 190.728L260.935 177L285.031 177L258.151 246.696L222.823 246.696L195.751 177L220.615 177ZM230.983 205.704C233.415 212.424 235.911 219.144 238.471 225.864L240.775 232.104C243.015 226.28 246.311 217.48 250.663 205.704L230.983 205.704Z" fill="#030611"/>
<path d="M194.472 185.256C192.296 188.52 190.504 191.56 189.096 194.376C187.624 197.192 186.216 200.456 184.872 204.168C180.328 201.544 175.048 199.496 169.032 198.024C163.016 196.552 157.416 195.816 152.232 195.816C146.92 195.816 143.176 196.264 141 197.16C138.824 198.12 137.736 199.144 137.736 200.232C137.736 204.136 143.688 206.088 155.592 206.088C168.648 206.088 178.12 207.432 184.008 210.12C189.896 212.872 192.84 217.288 192.84 223.368C192.84 232.008 189.256 238.376 182.088 242.472C174.92 246.568 165.608 248.616 154.152 248.616C147.496 248.616 140.68 247.752 133.704 246.024C126.664 244.36 120.328 242.056 114.696 239.112C116.552 234.888 118.504 229.736 120.552 223.656C120.936 222.376 121.256 221.416 121.512 220.776C124.776 223.4 129.704 225.576 136.296 227.304C142.888 229.096 148.712 229.992 153.768 229.992C159.848 229.992 163.944 229.576 166.056 228.744C168.168 227.976 169.224 226.824 169.224 225.288C169.224 223.752 167.784 222.504 164.904 221.544C161.96 220.648 157.736 220.2 152.232 220.2C138.664 220.2 128.808 218.632 122.664 215.496C116.52 212.424 113.448 207.688 113.448 201.288C113.448 192.328 116.712 185.864 123.24 181.896C129.768 177.992 139.656 176.04 152.904 176.04C160.008 176.04 167.24 176.808 174.6 178.344C181.96 179.944 188.584 182.248 194.472 185.256Z" fill="#030611"/>
<rect x="1" y="1" width="1160" height="712" stroke="#030611"/>
<ellipse cx="581" cy="357" rx="580" ry="356" stroke="#030611"/>
<rect x="1" y="147" width="1160" height="127" stroke="#030611"/>
<path fill-rule="evenodd" clip-rule="evenodd" d="M16.8475 274C34.9596 227.449 67.9684 184.448 112.609 147L1 147V274H16.8475ZM1145.15 274H1161V147L1049.39 147C1094.03 184.448 1127.04 227.449 1145.15 274Z" fill="#030611"/>
</svg>
